<svg aria-hidden="true" style="position: absolute; width: 0; height: 0; overflow: hidden;" version="1.1" xmlns="http://www.w3.org/2000/svg" xmlns:xlink="http://www.w3.org/1999/xlink">
<defs>
<symbol id="icon-facebook" viewBox="0 0 17 17">
<path d="M9.563 5.844v-2.125c0-0.587 0.476-1.063 1.063-1.063h1.063v-2.656h-2.125c-1.761 0-3.188 1.427-3.188 3.188v2.656h-2.125v2.656h2.125v8.5h3.188v-8.5h2.125l1.063-2.656h-3.188z"></path>
</symbol>
<symbol id="icon-instagram" viewBox="0 0 17 17">
<path d="M11.688 0h-6.375c-2.934 0-5.313 2.379-5.313 5.313v6.375c0 2.934 2.379 5.313 5.313 5.313h6.375c2.934 0 5.313-2.379 5.313-5.313v-6.375c0-2.934-2.379-5.313-5.313-5.313zM15.406 11.688c0 2.051-1.668 3.719-3.719 3.719h-6.375c-2.051 0-3.719-1.668-3.719-3.719v-6.375c0-2.051 1.668-3.719 3.719-3.719h6.375c2.051 0 3.719 1.668 3.719 3.719v6.375z"></path>
<path d="M8.5 4.25c-2.347 0-4.25 1.903-4.25 4.25s1.903 4.25 4.25 4.25c2.347 0 4.25-1.903 4.25-4.25s-1.903-4.25-4.25-4.25zM8.5 11.156c-1.464 0-2.656-1.192-2.656-2.656 0-1.465 1.192-2.656 2.656-2.656s2.656 1.191 2.656 2.656c0 1.464-1.192 2.656-2.656 2.656z"></path>
<path d="M13.069 4.497c0.313 0 0.566-0.254 0.566-0.566s-0.254-0.566-0.566-0.566c-0.313 0-0.566 0.254-0.566 0.566s0.254 0.566 0.566 0.566z"></path>
</symbol>
<symbol id="icon-youtube" viewBox="0 0 17 17">
<path d="M16.277 3.783c-0.461-0.82-0.962-0.971-1.981-1.029-1.018-0.069-3.577-0.098-5.795-0.098-2.222 0-4.782 0.029-5.799 0.097-1.017 0.058-1.518 0.208-1.984 1.030-0.475 0.819-0.719 2.23-0.719 4.714 0 0.002 0 0.003 0 0.003 0 0.002 0 0.003 0 0.003v0.002c0 2.473 0.244 3.895 0.719 4.706 0.465 0.82 0.966 0.969 1.983 1.038 1.018 0.059 3.579 0.095 5.8 0.095 2.217 0 4.777-0.035 5.796-0.093 1.019-0.069 1.519-0.218 1.98-1.038 0.479-0.811 0.721-2.232 0.721-4.706 0 0 0-0.003 0-0.005 0 0 0-0.002 0-0.003 0-2.485-0.242-3.896-0.723-4.715zM6.375 11.688v-6.375l5.313 3.188-5.313 3.188z"></path>
</symbol>
<symbol id="icon-arrow" viewBox="0 0 17 17">
<path d="M9.709 15.786l7.291-7.286-7.288-7.286-0.858 0.856 5.822 5.822h-14.676v1.214h14.676l-5.825 5.825 0.859 0.854z"></path>
</symbol>
<symbol id="icon-pool" viewBox="0 0 17 17">
<path d="M2.98 11.708l0.689-0.404c0.307-0.18 0.687-0.178 0.991 0.005l0.645 0.388c0.312 0.187 0.662 0.281 1.013 0.281 0.343 0 0.687-0.090 0.994-0.27l0.689-0.404c0.307-0.18 0.687-0.178 0.991 0.005l0.645 0.388c0.617 0.371 1.386 0.375 2.007 0.011l0.689-0.404c0.307-0.18 0.686-0.178 0.991 0.005l0.645 0.388c0.617 0.371 1.386 0.375 2.007 0.011l0.69-0.405-0.504-0.859-0.69 0.405c-0.306 0.18-0.686 0.178-0.99-0.005l-0.645-0.388c-0.521-0.313-1.15-0.365-1.708-0.155v-7.622c0-0.928 0.755-1.683 1.683-1.683h0.844v-0.996h-0.845c-1.477 0-2.679 1.202-2.679 2.679v0.814h-4.178v-0.814c0-0.928 0.755-1.683 1.683-1.683h0.844v-0.996h-0.844c-1.477 0-2.679 1.202-2.679 2.679v8.235c-0.049-0.019-0.097-0.043-0.143-0.070l-0.645-0.388c-0.617-0.371-1.387-0.375-2.008-0.011l-0.69 0.404c-0.306 0.18-0.686 0.178-0.99-0.005l-0.641-0.385-0.513 0.854 0.641 0.385c0.617 0.371 1.386 0.375 2.007 0.011zM10.152 10.844l-0.645-0.388c-0.617-0.371-1.387-0.375-2.008-0.011l-0.54 0.317v-2.708h4.178v2.799c-0.305 0.176-0.682 0.173-0.984-0.009zM11.136 4.489v2.568h-4.178v-2.568h4.178z"></path>
<path d="M2.98 14.219l0.689-0.404c0.307-0.18 0.687-0.178 0.991 0.005l0.645 0.388c0.617 0.371 1.386 0.375 2.007 0.011l0.689-0.404c0.307-0.18 0.687-0.178 0.991 0.005l0.645 0.388c0.617 0.371 1.386 0.375 2.007 0.011l0.689-0.404c0.307-0.18 0.686-0.178 0.991 0.005l0.645 0.388c0.312 0.187 0.662 0.281 1.013 0.281 0.343 0 0.687-0.090 0.994-0.27l0.69-0.405-0.504-0.859-0.69 0.405c-0.306 0.18-0.686 0.178-0.99-0.005l-0.645-0.388c-0.617-0.371-1.387-0.375-2.008-0.011l-0.689 0.404c-0.306 0.18-0.686 0.178-0.99-0.005l-0.645-0.388c-0.617-0.371-1.387-0.375-2.009-0.011l-0.689 0.404c-0.306 0.18-0.686 0.178-0.99-0.005l-0.645-0.388c-0.618-0.371-1.387-0.375-2.009-0.011l-0.689 0.404c-0.306 0.18-0.686 0.178-0.99-0.005l-0.641-0.385-0.513 0.854 0.641 0.385c0.617 0.371 1.386 0.375 2.007 0.011z"></path>
<path d="M15.475 15.871c-0.306 0.18-0.686 0.178-0.99-0.005l-0.645-0.388c-0.617-0.371-1.387-0.376-2.008-0.011l-0.689 0.404c-0.306 0.18-0.686 0.178-0.99-0.005l-0.645-0.388c-0.617-0.371-1.387-0.375-2.008-0.011l-0.689 0.404c-0.306 0.18-0.686 0.178-0.99-0.005l-0.645-0.388c-0.617-0.371-1.387-0.375-2.008-0.011l-0.689 0.404c-0.306 0.18-0.686 0.178-0.99-0.005l-0.641-0.385-0.513 0.854 0.641 0.385c0.617 0.371 1.386 0.375 2.007 0.011l0.689-0.404c0.307-0.18 0.687-0.178 0.991 0.005l0.645 0.388c0.617 0.371 1.386 0.375 2.007 0.011l0.689-0.404c0.307-0.18 0.687-0.178 0.991 0.005l0.645 0.388c0.617 0.371 1.386 0.375 2.007 0.011l0.689-0.404c0.307-0.18 0.686-0.178 0.991 0.005l0.645 0.388c0.312 0.187 0.662 0.281 1.013 0.281 0.343 0 0.687-0.090 0.994-0.27l0.69-0.405-0.504-0.859-0.69 0.405z"></path>
</symbol>
<symbol id="icon-trees" viewBox="0 0 17 17">
<path d="M14.574 6.269c-0.135-0.854-0.55-1.638-1.19-2.233-0.721-0.672-1.661-1.041-2.647-1.041s-1.926 0.37-2.647 1.041c-0.183 0.17-0.347 0.355-0.491 0.553l-0.203-1.662c-0.204-1.668-1.625-2.927-3.306-2.927s-3.102 1.258-3.306 2.927l-0.613 5.020c-0.137 1.121 0.214 2.25 0.963 3.096 0.638 0.721 1.514 1.179 2.458 1.299v4.658h0.996v-4.658c0.278-0.035 0.55-0.1 0.812-0.192 0.311 0.411 0.702 0.759 1.149 1.020 0.59 0.344 1.265 0.525 1.951 0.525 0.609 0 1.204-0.143 1.739-0.411v3.717h0.996v-3.717c0.536 0.268 1.13 0.411 1.739 0.411 2.142 0 3.885-1.743 3.885-3.885 0-1.532-0.906-2.917-2.285-3.541zM4.588 11.335v-1.396h-0l1.78-0.936-0.464-0.882-1.317 0.692v-2.53l1.78-0.936-0.464-0.882-1.317 0.692v-1.455h-0.996v3.283l-1.317-0.692-0.464 0.882 1.78 0.936v3.224c-0.658-0.113-1.264-0.446-1.712-0.953-0.56-0.632-0.822-1.476-0.72-2.315l0.613-5.020c0.143-1.169 1.139-2.051 2.317-2.051s2.174 0.882 2.317 2.051l0.613 5.020c0.102 0.839-0.16 1.682-0.72 2.315-0.448 0.507-1.055 0.84-1.712 0.953zM12.974 12.698c-0.63 0-1.24-0.206-1.739-0.583v-2.394l1.78-0.936-0.464-0.882-1.317 0.692v-1.455h-0.996v3.263l-1.317-0.692-0.464 0.882 1.78 0.936v0.587c-0.499 0.377-1.109 0.583-1.739 0.583-0.845 0-1.647-0.377-2.191-1.008 0.269-0.183 0.517-0.4 0.737-0.648 0.749-0.846 1.1-1.974 0.963-3.096l-0.154-1.262 0.002-0.028c0.055-0.724 0.379-1.396 0.912-1.893 0.536-0.499 1.235-0.774 1.968-0.774s1.432 0.275 1.968 0.774c0.533 0.497 0.857 1.169 0.912 1.893l0.024 0.323 0.305 0.109c1.146 0.41 1.917 1.503 1.917 2.721-0 1.593-1.296 2.889-2.889 2.889z"></path>
</symbol>
<symbol id="icon-eco-house" viewBox="0 0 17 17">
<path d="M17 8.481l-8.5-8.48-8.5 8.48 0.705 0.706 1.392-1.388v9.2h12.807v-9.2l1.392 1.388 0.705-0.706zM8.001 9.924v2.59c-0.615-0.611-1.286-1.508-1.286-2.426 0-1.27 1.223-2.413 1.788-2.873 0.674 0.547 1.783 1.693 1.783 2.873 0 0.961-0.701 1.849-1.286 2.424v-2.588l-0.998-0zM13.906 16.001h-4.907v-2.163c0.611-0.474 2.284-1.937 2.284-3.75 0-2.17-2.399-3.84-2.501-3.91l-0.282-0.193-0.282 0.193c-0.102 0.070-2.501 1.74-2.501 3.91 0 1.813 1.673 3.276 2.284 3.75v2.163h-4.907v-9.198l5.406-5.393 5.406 5.393v9.198z"></path>
</symbol>
<symbol id="icon-eco-green" viewBox="0 0 17 17">
<path d="M14.994 4.015h-0.996v0.934h-0.938v-0.934h-0.996v0.934h-1.058v0.996h0.575v1.025c0 0.902 0.616 1.662 1.45 1.883v3.822c0 0.613-0.499 1.112-1.112 1.112s-1.112-0.499-1.112-1.112v-1.446c0-1.163-0.946-2.109-2.109-2.109s-2.109 0.946-2.109 2.109v3.662c0 0.613-0.499 1.112-1.112 1.112s-1.112-0.499-1.112-1.112v-4.955c0.622-0.52 2.42-2.244 2.42-4.78 0-3.002-2.518-4.865-2.625-4.943l-0.293-0.213-0.293 0.213c-0.107 0.078-2.625 1.941-2.625 4.943 0 2.537 1.798 4.26 2.42 4.78v4.955c0 1.163 0.946 2.109 2.109 2.109s2.109-0.946 2.109-2.109v-3.662c0-0.613 0.499-1.112 1.112-1.112s1.112 0.499 1.112 1.112v1.446c0 1.163 0.946 2.109 2.109 2.109s2.109-0.946 2.109-2.109v-3.822c0.834-0.221 1.45-0.981 1.45-1.883v-1.025h0.575v-0.996h-1.058v-0.934h-0zM3.368 5.156v3.388c-0.636-0.713-1.423-1.897-1.423-3.388 0-1.929 1.32-3.345 1.921-3.891 0.602 0.546 1.922 1.962 1.922 3.891 0 1.49-0.787 2.674-1.423 3.388v-3.388h-0.996zM14.48 6.97c0 0.525-0.427 0.952-0.952 0.952s-0.952-0.427-0.952-0.952v-1.025h1.903v1.025h-0z"></path>
</symbol>
<symbol id="icon-guard" viewBox="0 0 17 17">
<path d="M8.577 2.923c0.274 0 0.498-0.224 0.498-0.498s-0.224-0.498-0.498-0.498c-0.274 0-0.498 0.224-0.498 0.498s0.224 0.498 0.498 0.498z"></path>
<path d="M16.709 13.259l-5.385-2.459c0.839-0.754 1.367-1.846 1.367-3.060v-1.655c0.19-0.085 0.371-0.177 0.539-0.275 0.121-0.071 0.207-0.189 0.236-0.327s-0.001-0.281-0.083-0.395l-0.636-0.883 0.955-1.811c0.067-0.128 0.076-0.279 0.023-0.413s-0.161-0.24-0.297-0.288l-4.685-1.663c-0.108-0.038-0.225-0.038-0.333 0l-4.685 1.663c-0.136 0.048-0.245 0.153-0.297 0.288s-0.044 0.285 0.023 0.413l0.95 1.802-0.635 0.908c-0.080 0.114-0.108 0.257-0.078 0.393s0.117 0.254 0.237 0.323c0.161 0.093 0.342 0.181 0.537 0.264v1.655c0 1.189 0.507 2.261 1.316 3.013l-5.489 2.506c-0.177 0.081-0.291 0.258-0.291 0.453v2.788c0 0.275 0.223 0.498 0.498 0.498s0.498-0.223 0.498-0.498v-2.468l3.15-1.438 2.336 2.775c0.089 0.106 0.217 0.169 0.355 0.177 0.009 0 0.017 0.001 0.026 0.001 0.129 0 0.253-0.050 0.346-0.139l1.291-1.245 1.291 1.245c0.093 0.090 0.217 0.139 0.346 0.139 0.009 0 0.017-0 0.026-0.001 0.138-0.007 0.266-0.071 0.355-0.177l2.336-2.775 3.15 1.438v2.468c0 0.275 0.223 0.498 0.498 0.498s0.498-0.223 0.498-0.498v-2.788c0-0.195-0.114-0.372-0.291-0.453zM8.5 12.837l-1.024-1.133c0.351 0.098 0.72 0.15 1.102 0.15 0.31 0 0.611-0.035 0.901-0.1l-0.979 1.082zM4.919 5.196l0.243-0.347h6.822l0.252 0.35c-0.943 0.414-2.184 0.646-3.502 0.646-1.373 0-2.844-0.257-3.815-0.649zM8.577 1.028l3.976 1.411-0.745 1.413h-6.462l-0.745-1.413 3.976-1.411zM5.46 7.741v-1.317c0.972 0.264 2.131 0.417 3.274 0.417 1.053 0 2.072-0.139 2.961-0.395v1.295c0 1.719-1.399 3.118-3.118 3.118s-3.118-1.399-3.118-3.118zM6.901 14.32l-1.811-2.151 1.035-0.473 1.629 1.801-0.853 0.823zM10.099 14.32l-0.853-0.823 1.629-1.801 1.035 0.473-1.811 2.151z"></path>
</symbol>
<symbol id="icon-location" viewBox="0 0 17 17">
<path d="M8.5 2.907c-0.824 0-1.494 0.671-1.494 1.495s0.67 1.495 1.494 1.495c0.824 0 1.494-0.671 1.494-1.495s-0.67-1.495-1.494-1.495zM8.5 4.901c-0.275 0-0.498-0.224-0.498-0.499s0.223-0.499 0.498-0.499c0.275 0 0.498 0.224 0.498 0.499s-0.223 0.499-0.498 0.499z"></path>
<path d="M16.982 15.458l-2.188-8.010c-0.059-0.218-0.259-0.367-0.48-0.367h-2.899c0.379-0.975 0.571-1.874 0.571-2.679 0-1.924-1.564-3.489-3.486-3.489s-3.486 1.565-3.486 3.489c0 0.805 0.192 1.704 0.571 2.679h-2.899c-0.225 0-0.421 0.15-0.48 0.367l-2.188 8.010c-0.086 0.317 0.152 0.629 0.48 0.629 0.185 0 15.823 0 16.003 0 0.328 0 0.567-0.313 0.48-0.629zM8.5 1.909c1.373 0 2.49 1.118 2.49 2.493 0 0.851-0.263 1.849-0.781 2.968-0.553 1.194-1.274 2.248-1.709 2.837-0.635-0.861-1.258-1.863-1.709-2.837-0.518-1.119-0.781-2.117-0.781-2.968 0-1.375 1.117-2.493 2.49-2.493zM3.066 8.077h2.959c0.566 1.151 1.367 2.372 2.060 3.224 0.241 0.297 0.591 0.296 0.831 0 0.704-0.866 1.513-2.112 2.060-3.224h2.362l-3.041 4.189h-8.374l1.144-4.189zM1.151 15.091l0.499-1.828h7.923l-1.327 1.828h-7.096zM9.477 15.091l4.63-6.379 1.742 6.379h-6.372z"></path>
</symbol>
<symbol id="icon-photo-camera" viewBox="0 0 17 17">
<path d="M16.336 4.064c-0.443-0.443-0.977-0.664-1.603-0.664h-1.983l-0.452-1.204c-0.112-0.289-0.317-0.539-0.615-0.748s-0.604-0.314-0.916-0.314h-4.533c-0.313 0-0.618 0.105-0.916 0.314s-0.503 0.459-0.615 0.748l-0.452 1.204h-1.983c-0.626 0-1.16 0.221-1.603 0.664s-0.664 0.977-0.664 1.603v7.933c0 0.626 0.221 1.16 0.664 1.603s0.977 0.664 1.603 0.664h12.467c0.626 0 1.16-0.221 1.603-0.664s0.664-0.977 0.664-1.603v-7.933c0-0.626-0.221-1.16-0.664-1.603zM11.302 12.436c-0.776 0.776-1.71 1.164-2.802 1.164s-2.026-0.388-2.802-1.164c-0.776-0.776-1.164-1.71-1.164-2.802s0.388-2.026 1.164-2.802c0.776-0.776 1.71-1.164 2.802-1.164s2.026 0.388 2.802 1.164 1.164 1.71 1.164 2.802c0 1.092-0.388 2.026-1.164 2.802z"></path>
<path d="M8.5 7.083c-0.702 0-1.303 0.249-1.802 0.748s-0.748 1.099-0.748 1.802c0 0.702 0.249 1.303 0.748 1.802s1.099 0.748 1.802 0.748c0.702 0 1.303-0.249 1.802-0.748s0.748-1.099 0.748-1.802c0-0.703-0.249-1.303-0.748-1.802s-1.1-0.748-1.802-0.748z"></path>
</symbol>
</defs>
</svg>
