<svg aria-hidden="true" style="position: absolute; width: 0; height: 0; overflow: hidden;" version="1.1" xmlns="http://www.w3.org/2000/svg" xmlns:xlink="http://www.w3.org/1999/xlink">
<defs>
<symbol id="icon-facebook" viewBox="0 0 17 17">
<path d="M9.563 5.844v-2.125c0-0.587 0.476-1.063 1.063-1.063h1.063v-2.656h-2.125c-1.761 0-3.188 1.427-3.188 3.188v2.656h-2.125v2.656h2.125v8.5h3.188v-8.5h2.125l1.063-2.656h-3.188z"></path>
</symbol>
<symbol id="icon-instagram" viewBox="0 0 17 17">
<path d="M11.688 0h-6.375c-2.934 0-5.313 2.379-5.313 5.313v6.375c0 2.934 2.379 5.313 5.313 5.313h6.375c2.934 0 5.313-2.379 5.313-5.313v-6.375c0-2.934-2.379-5.313-5.313-5.313zM15.406 11.688c0 2.051-1.668 3.719-3.719 3.719h-6.375c-2.051 0-3.719-1.668-3.719-3.719v-6.375c0-2.051 1.668-3.719 3.719-3.719h6.375c2.051 0 3.719 1.668 3.719 3.719v6.375z"></path>
<path d="M8.5 4.25c-2.347 0-4.25 1.903-4.25 4.25s1.903 4.25 4.25 4.25c2.347 0 4.25-1.903 4.25-4.25s-1.903-4.25-4.25-4.25zM8.5 11.156c-1.464 0-2.656-1.192-2.656-2.656 0-1.465 1.192-2.656 2.656-2.656s2.656 1.191 2.656 2.656c0 1.464-1.192 2.656-2.656 2.656z"></path>
<path d="M13.069 4.497c0.313 0 0.566-0.254 0.566-0.566s-0.254-0.566-0.566-0.566c-0.313 0-0.566 0.254-0.566 0.566s0.254 0.566 0.566 0.566z"></path>
</symbol>
<symbol id="icon-youtube" viewBox="0 0 17 17">
<path d="M16.277 3.783c-0.461-0.82-0.962-0.971-1.981-1.029-1.018-0.069-3.577-0.098-5.795-0.098-2.222 0-4.782 0.029-5.799 0.097-1.017 0.058-1.518 0.208-1.984 1.030-0.475 0.819-0.719 2.23-0.719 4.714 0 0.002 0 0.003 0 0.003 0 0.002 0 0.003 0 0.003v0.002c0 2.473 0.244 3.895 0.719 4.706 0.465 0.82 0.966 0.969 1.983 1.038 1.018 0.059 3.579 0.095 5.8 0.095 2.217 0 4.777-0.035 5.796-0.093 1.019-0.069 1.519-0.218 1.98-1.038 0.479-0.811 0.721-2.232 0.721-4.706 0 0 0-0.003 0-0.005 0 0 0-0.002 0-0.003 0-2.485-0.242-3.896-0.723-4.715zM6.375 11.688v-6.375l5.313 3.188-5.313 3.188z"></path>
</symbol>
<symbol id="icon-arrow" viewBox="0 0 17 17">
<path d="M9.709 15.786l7.291-7.286-7.288-7.286-0.858 0.856 5.822 5.822h-14.676v1.214h14.676l-5.825 5.825 0.859 0.854z"></path>
</symbol>
</defs>
</svg>
